<svg xmlns="http://www.w3.org/2000/svg" width="9216" height="7168" viewBox="0 0 9216 7168">
  <image href="../../images/rdr2-map.jpg" x="0" y="0" width="9216" height="7168" opacity="0.62" />
  <circle cx="6173.93" cy="3394.93" r="750.0" fill="#55d66b" opacity="0.10" stroke="#55d66b" stroke-width="7" />
  <circle cx="5217.97" cy="4428.93" r="750.0" fill="#55d66b" opacity="0.10" stroke="#55d66b" stroke-width="7" />
  <circle cx="5060.55" cy="4428.55" r="750.0" fill="#55d66b" opacity="0.10" stroke="#55d66b" stroke-width="7" />
  <circle cx="5238.31" cy="4138.74" r="750.0" fill="#55d66b" opacity="0.10" stroke="#55d66b" stroke-width="7" />
  <circle cx="5285.30" cy="4069.16" r="750.0" fill="#55d66b" opacity="0.10" stroke="#55d66b" stroke-width="7" />
  <circle cx="4936.40" cy="4343.53" r="750.0" fill="#55d66b" opacity="0.10" stroke="#55d66b" stroke-width="7" />
  <circle cx="3989.78" cy="4388.76" r="750.0" fill="#55d66b" opacity="0.10" stroke="#55d66b" stroke-width="7" />
  <circle cx="2561.09" cy="5627.38" r="750.0" fill="#55d66b" opacity="0.10" stroke="#55d66b" stroke-width="7" />
  <circle cx="1945.56" cy="5279.62" r="750.0" fill="#55d66b" opacity="0.10" stroke="#55d66b" stroke-width="7" />
  <circle cx="1351.16" cy="5443.29" r="750.0" fill="#55d66b" opacity="0.10" stroke="#55d66b" stroke-width="7" />
  <circle cx="1167.66" cy="5574.06" r="750.0" fill="#55d66b" opacity="0.10" stroke="#55d66b" stroke-width="7" />
  <circle cx="4243.38" cy="3713.67" r="750.0" fill="#55d66b" opacity="0.10" stroke="#55d66b" stroke-width="7" />
  <circle cx="4202.00" cy="3641.11" r="750.0" fill="#55d66b" opacity="0.10" stroke="#55d66b" stroke-width="7" />
  <circle cx="4366.23" cy="3771.73" r="750.0" fill="#55d66b" opacity="0.10" stroke="#55d66b" stroke-width="7" />
  <circle cx="4361.96" cy="3848.63" r="750.0" fill="#55d66b" opacity="0.10" stroke="#55d66b" stroke-width="7" />
  <circle cx="4472.18" cy="3680.97" r="750.0" fill="#55d66b" opacity="0.10" stroke="#55d66b" stroke-width="7" />
  <circle cx="5007.44" cy="3619.69" r="750.0" fill="#55d66b" opacity="0.10" stroke="#55d66b" stroke-width="7" />
  <circle cx="5605.79" cy="3305.38" r="750.0" fill="#55d66b" opacity="0.10" stroke="#55d66b" stroke-width="7" />
  <circle cx="5769.26" cy="3280.78" r="750.0" fill="#55d66b" opacity="0.10" stroke="#55d66b" stroke-width="7" />
  <circle cx="6439.32" cy="4027.61" r="750.0" fill="#55d66b" opacity="0.10" stroke="#55d66b" stroke-width="7" />
  <circle cx="7441.05" cy="3659.75" r="750.0" fill="#55d66b" opacity="0.10" stroke="#55d66b" stroke-width="7" />
  <circle cx="8075.95" cy="1173.05" r="14" fill="#d94f3d" stroke="#1b140e" stroke-width="4" opacity="0.92" />
  <circle cx="7953.36" cy="1352.75" r="14" fill="#d94f3d" stroke="#1b140e" stroke-width="4" opacity="0.92" />
  <circle cx="7814.45" cy="1479.39" r="14" fill="#d94f3d" stroke="#1b140e" stroke-width="4" opacity="0.92" />
  <circle cx="7746.94" cy="1989.72" r="14" fill="#d94f3d" stroke="#1b140e" stroke-width="4" opacity="0.92" />
  <circle cx="7665.21" cy="2148.98" r="14" fill="#d94f3d" stroke="#1b140e" stroke-width="4" opacity="0.92" />
  <circle cx="7822.47" cy="2206.04" r="14" fill="#d94f3d" stroke="#1b140e" stroke-width="4" opacity="0.92" />
  <circle cx="8016.49" cy="2291.64" r="14" fill="#d94f3d" stroke="#1b140e" stroke-width="4" opacity="0.92" />
  <circle cx="3753.77" cy="2335.14" r="14" fill="#d94f3d" stroke="#1b140e" stroke-width="4" opacity="0.92" />
  <circle cx="4235.78" cy="2473.63" r="14" fill="#d94f3d" stroke="#1b140e" stroke-width="4" opacity="0.92" />
  <circle cx="4642.23" cy="2473.38" r="14" fill="#d94f3d" stroke="#1b140e" stroke-width="4" opacity="0.92" />
  <circle cx="7887.74" cy="2630.56" r="14" fill="#d94f3d" stroke="#1b140e" stroke-width="4" opacity="0.92" />
  <circle cx="4442.02" cy="2726.61" r="14" fill="#d7a541" stroke="#1b140e" stroke-width="4" opacity="0.92" />
  <circle cx="4642.17" cy="2771.39" r="14" fill="#d7a541" stroke="#1b140e" stroke-width="4" opacity="0.92" />
  <circle cx="7648.74" cy="2773.59" r="14" fill="#d7a541" stroke="#1b140e" stroke-width="4" opacity="0.92" />
  <circle cx="5314.14" cy="2873.03" r="14" fill="#d7a541" stroke="#1b140e" stroke-width="4" opacity="0.92" />
  <circle cx="4868.84" cy="3028.43" r="14" fill="#d7a541" stroke="#1b140e" stroke-width="4" opacity="0.92" />
  <circle cx="7581.28" cy="3087.97" r="14" fill="#d7a541" stroke="#1b140e" stroke-width="4" opacity="0.92" />
  <circle cx="7370.88" cy="3190.16" r="14" fill="#55d66b" stroke="#1b140e" stroke-width="4" opacity="0.92" />
  <circle cx="7669.07" cy="3247.12" r="14" fill="#55d66b" stroke="#1b140e" stroke-width="4" opacity="0.92" />
  <circle cx="5612.26" cy="3301.48" r="14" fill="#55d66b" stroke="#1b140e" stroke-width="4" opacity="0.92" />
  <circle cx="6427.21" cy="3354.04" r="14" fill="#55d66b" stroke="#1b140e" stroke-width="4" opacity="0.92" />
  <circle cx="6809.16" cy="3304.81" r="14" fill="#d7a541" stroke="#1b140e" stroke-width="4" opacity="0.92" />
  <circle cx="4080.38" cy="3310.61" r="14" fill="#55d66b" stroke="#1b140e" stroke-width="4" opacity="0.92" />
  <circle cx="7524.04" cy="3316.61" r="14" fill="#55d66b" stroke="#1b140e" stroke-width="4" opacity="0.92" />
  <circle cx="7740.53" cy="3394.04" r="14" fill="#55d66b" stroke="#1b140e" stroke-width="4" opacity="0.92" />
  <circle cx="7372.87" cy="3459.59" r="14" fill="#55d66b" stroke="#1b140e" stroke-width="4" opacity="0.92" />
  <circle cx="6502.75" cy="3513.20" r="14" fill="#55d66b" stroke="#1b140e" stroke-width="4" opacity="0.92" />
  <circle cx="7693.53" cy="3520.62" r="14" fill="#55d66b" stroke="#1b140e" stroke-width="4" opacity="0.92" />
  <circle cx="7564.85" cy="3520.70" r="14" fill="#55d66b" stroke="#1b140e" stroke-width="4" opacity="0.92" />
  <circle cx="7213.54" cy="3516.84" r="14" fill="#55d66b" stroke="#1b140e" stroke-width="4" opacity="0.92" />
  <circle cx="6382.23" cy="3554.10" r="14" fill="#55d66b" stroke="#1b140e" stroke-width="4" opacity="0.92" />
  <circle cx="4343.80" cy="3608.45" r="14" fill="#55d66b" stroke="#1b140e" stroke-width="4" opacity="0.92" />
  <circle cx="7023.57" cy="3606.77" r="14" fill="#55d66b" stroke="#1b140e" stroke-width="4" opacity="0.92" />
  <circle cx="6498.62" cy="3700.99" r="14" fill="#55d66b" stroke="#1b140e" stroke-width="4" opacity="0.92" />
  <circle cx="4366.23" cy="3771.73" r="14" fill="#55d66b" stroke="#1b140e" stroke-width="4" opacity="0.92" />
  <circle cx="6345.41" cy="3839.89" r="14" fill="#55d66b" stroke="#1b140e" stroke-width="4" opacity="0.92" />
  <circle cx="7601.55" cy="3851.35" r="14" fill="#55d66b" stroke="#1b140e" stroke-width="4" opacity="0.92" />
  <circle cx="7711.83" cy="3904.35" r="14" fill="#55d66b" stroke="#1b140e" stroke-width="4" opacity="0.92" />
  <circle cx="6439.32" cy="4027.61" r="14" fill="#55d66b" stroke="#1b140e" stroke-width="4" opacity="0.92" />
  <circle cx="5285.30" cy="4069.16" r="14" fill="#55d66b" stroke="#1b140e" stroke-width="4" opacity="0.92" />
  <circle cx="6539.38" cy="4170.43" r="14" fill="#55d66b" stroke="#1b140e" stroke-width="4" opacity="0.92" />
  <circle cx="5238.31" cy="4138.74" r="14" fill="#55d66b" stroke="#1b140e" stroke-width="4" opacity="0.92" />
  <circle cx="6902.94" cy="4202.86" r="14" fill="#55d66b" stroke="#1b140e" stroke-width="4" opacity="0.92" />
  <circle cx="7487.09" cy="4222.91" r="14" fill="#d7a541" stroke="#1b140e" stroke-width="4" opacity="0.92" />
  <circle cx="3896.34" cy="4335.38" r="14" fill="#55d66b" stroke="#1b140e" stroke-width="4" opacity="0.92" />
  <circle cx="6516.88" cy="4333.74" r="14" fill="#55d66b" stroke="#1b140e" stroke-width="4" opacity="0.92" />
  <circle cx="7615.74" cy="4353.46" r="14" fill="#d7a541" stroke="#1b140e" stroke-width="4" opacity="0.92" />
  <circle cx="4888.99" cy="4408.24" r="14" fill="#55d66b" stroke="#1b140e" stroke-width="4" opacity="0.92" />
  <circle cx="5060.55" cy="4428.55" r="14" fill="#55d66b" stroke="#1b140e" stroke-width="4" opacity="0.92" />
  <circle cx="4664.30" cy="4465.54" r="14" fill="#55d66b" stroke="#1b140e" stroke-width="4" opacity="0.92" />
  <circle cx="4031.12" cy="4482.26" r="14" fill="#55d66b" stroke="#1b140e" stroke-width="4" opacity="0.92" />
  <circle cx="7284.83" cy="4476.14" r="14" fill="#d7a541" stroke="#1b140e" stroke-width="4" opacity="0.92" />
  <circle cx="6582.20" cy="4533.73" r="14" fill="#d7a541" stroke="#1b140e" stroke-width="4" opacity="0.92" />
  <circle cx="7491.11" cy="4549.49" r="14" fill="#d7a541" stroke="#1b140e" stroke-width="4" opacity="0.92" />
  <circle cx="4153.65" cy="4584.24" r="14" fill="#55d66b" stroke="#1b140e" stroke-width="4" opacity="0.92" />
  <circle cx="3295.78" cy="4637.85" r="14" fill="#d7a541" stroke="#1b140e" stroke-width="4" opacity="0.92" />
  <circle cx="2589.05" cy="4785.26" r="14" fill="#d7a541" stroke="#1b140e" stroke-width="4" opacity="0.92" />
  <circle cx="2717.72" cy="4826.00" r="14" fill="#d7a541" stroke="#1b140e" stroke-width="4" opacity="0.92" />
  <circle cx="1802.67" cy="4842.90" r="14" fill="#55d66b" stroke="#1b140e" stroke-width="4" opacity="0.92" />
  <circle cx="3602.10" cy="4956.08" r="14" fill="#d7a541" stroke="#1b140e" stroke-width="4" opacity="0.92" />
  <circle cx="4194.42" cy="4976.12" r="14" fill="#d7a541" stroke="#1b140e" stroke-width="4" opacity="0.92" />
  <circle cx="3902.33" cy="5053.87" r="14" fill="#d7a541" stroke="#1b140e" stroke-width="4" opacity="0.92" />
  <circle cx="2719.71" cy="5062.77" r="14" fill="#d7a541" stroke="#1b140e" stroke-width="4" opacity="0.92" />
  <circle cx="1845.52" cy="5071.48" r="14" fill="#55d66b" stroke="#1b140e" stroke-width="4" opacity="0.92" />
  <circle cx="1984.40" cy="5120.39" r="14" fill="#55d66b" stroke="#1b140e" stroke-width="4" opacity="0.92" />
  <circle cx="4372.08" cy="5184.21" r="14" fill="#d7a541" stroke="#1b140e" stroke-width="4" opacity="0.92" />
  <circle cx="2640.02" cy="5217.95" r="14" fill="#55d66b" stroke="#1b140e" stroke-width="4" opacity="0.92" />
  <circle cx="1945.56" cy="5279.62" r="14" fill="#55d66b" stroke="#1b140e" stroke-width="4" opacity="0.92" />
  <circle cx="3581.16" cy="5350.14" r="14" fill="#d94f3d" stroke="#1b140e" stroke-width="4" opacity="0.92" />
  <circle cx="1351.16" cy="5443.29" r="14" fill="#55d66b" stroke="#1b140e" stroke-width="4" opacity="0.92" />
  <circle cx="2294.77" cy="5581.49" r="14" fill="#55d66b" stroke="#1b140e" stroke-width="4" opacity="0.92" />
  <circle cx="991.63" cy="5668.04" r="14" fill="#55d66b" stroke="#1b140e" stroke-width="4" opacity="0.92" />
  <circle cx="1334.75" cy="5782.13" r="14" fill="#55d66b" stroke="#1b140e" stroke-width="4" opacity="0.92" />
  <circle cx="958.91" cy="5847.68" r="14" fill="#55d66b" stroke="#1b140e" stroke-width="4" opacity="0.92" />
  <circle cx="2008.75" cy="5900.09" r="14" fill="#d7a541" stroke="#1b140e" stroke-width="4" opacity="0.92" />
  <circle cx="1833.09" cy="5904.28" r="14" fill="#d7a541" stroke="#1b140e" stroke-width="4" opacity="0.92" />
  <circle cx="1596.15" cy="5977.91" r="14" fill="#d7a541" stroke="#1b140e" stroke-width="4" opacity="0.92" />
  <circle cx="8057.14" cy="1085.94" r="14" fill="#d94f3d" stroke="#1b140e" stroke-width="4" opacity="0.92" />
  <circle cx="7875.42" cy="1445.51" r="14" fill="#d94f3d" stroke="#1b140e" stroke-width="4" opacity="0.92" />
  <circle cx="7671.33" cy="2103.28" r="14" fill="#d94f3d" stroke="#1b140e" stroke-width="4" opacity="0.92" />
  <circle cx="3784.52" cy="2174.86" r="14" fill="#d94f3d" stroke="#1b140e" stroke-width="4" opacity="0.92" />
  <circle cx="7505.84" cy="2185.07" r="14" fill="#d94f3d" stroke="#1b140e" stroke-width="4" opacity="0.92" />
  <circle cx="4432.40" cy="2366.50" r="14" fill="#d94f3d" stroke="#1b140e" stroke-width="4" opacity="0.92" />
  <circle cx="7393.56" cy="2471.08" r="14" fill="#d94f3d" stroke="#1b140e" stroke-width="4" opacity="0.92" />
  <circle cx="3823.47" cy="2481.21" r="14" fill="#d94f3d" stroke="#1b140e" stroke-width="4" opacity="0.92" />
  <circle cx="4461.10" cy="2574.81" r="14" fill="#d94f3d" stroke="#1b140e" stroke-width="4" opacity="0.92" />
  <circle cx="7996.46" cy="2613.72" r="14" fill="#d94f3d" stroke="#1b140e" stroke-width="4" opacity="0.92" />
  <circle cx="5209.14" cy="2831.75" r="14" fill="#d7a541" stroke="#1b140e" stroke-width="4" opacity="0.92" />
  <circle cx="4747.34" cy="2917.78" r="14" fill="#d7a541" stroke="#1b140e" stroke-width="4" opacity="0.92" />
  <circle cx="7587.88" cy="2920.31" r="14" fill="#d7a541" stroke="#1b140e" stroke-width="4" opacity="0.92" />
  <circle cx="7324.32" cy="3055.25" r="14" fill="#d7a541" stroke="#1b140e" stroke-width="4" opacity="0.92" />
  <circle cx="6619.31" cy="3112.83" r="14" fill="#d7a541" stroke="#1b140e" stroke-width="4" opacity="0.92" />
  <circle cx="7698.32" cy="3132.66" r="14" fill="#d7a541" stroke="#1b140e" stroke-width="4" opacity="0.92" />
  <circle cx="4882.32" cy="3195.48" r="14" fill="#55d66b" stroke="#1b140e" stroke-width="4" opacity="0.92" />
  <circle cx="7857.74" cy="3197.93" r="14" fill="#d7a541" stroke="#1b140e" stroke-width="4" opacity="0.92" />
  <circle cx="5769.26" cy="3280.78" r="14" fill="#55d66b" stroke="#1b140e" stroke-width="4" opacity="0.92" />
  <circle cx="5605.79" cy="3305.38" r="14" fill="#55d66b" stroke="#1b140e" stroke-width="4" opacity="0.92" />
  <circle cx="8080.54" cy="3324.44" r="14" fill="#d7a541" stroke="#1b140e" stroke-width="4" opacity="0.92" />
  <circle cx="7459.31" cy="3353.38" r="14" fill="#55d66b" stroke="#1b140e" stroke-width="4" opacity="0.92" />
  <circle cx="6451.85" cy="3370.27" r="14" fill="#55d66b" stroke="#1b140e" stroke-width="4" opacity="0.92" />
  <circle cx="7915.03" cy="3373.55" r="14" fill="#d7a541" stroke="#1b140e" stroke-width="4" opacity="0.92" />
  <circle cx="5162.39" cy="3424.08" r="14" fill="#55d66b" stroke="#1b140e" stroke-width="4" opacity="0.92" />
  <circle cx="6173.93" cy="3394.93" r="14" fill="#55d66b" stroke="#1b140e" stroke-width="4" opacity="0.92" />
  <circle cx="4522.76" cy="3436.69" r="14" fill="#55d66b" stroke="#1b140e" stroke-width="4" opacity="0.92" />
  <circle cx="7782.23" cy="3447.15" r="14" fill="#55d66b" stroke="#1b140e" stroke-width="4" opacity="0.92" />
  <circle cx="3999.62" cy="3469.65" r="14" fill="#55d66b" stroke="#1b140e" stroke-width="4" opacity="0.92" />
  <circle cx="5009.14" cy="3469.10" r="14" fill="#55d66b" stroke="#1b140e" stroke-width="4" opacity="0.92" />
  <circle cx="7855.83" cy="3528.81" r="14" fill="#55d66b" stroke="#1b140e" stroke-width="4" opacity="0.92" />
  <circle cx="4202.00" cy="3641.11" r="14" fill="#55d66b" stroke="#1b140e" stroke-width="4" opacity="0.92" />
  <circle cx="7441.05" cy="3659.75" r="14" fill="#55d66b" stroke="#1b140e" stroke-width="4" opacity="0.92" />
  <circle cx="4140.74" cy="3747.35" r="14" fill="#55d66b" stroke="#1b140e" stroke-width="4" opacity="0.92" />
  <circle cx="7641.37" cy="3790.36" r="14" fill="#55d66b" stroke="#1b140e" stroke-width="4" opacity="0.92" />
  <circle cx="6564.49" cy="3970.69" r="14" fill="#55d66b" stroke="#1b140e" stroke-width="4" opacity="0.92" />
  <circle cx="3650.40" cy="4013.14" r="14" fill="#d7a541" stroke="#1b140e" stroke-width="4" opacity="0.92" />
  <circle cx="3844.59" cy="4143.75" r="14" fill="#55d66b" stroke="#1b140e" stroke-width="4" opacity="0.92" />
  <circle cx="4968.58" cy="4228.91" r="14" fill="#55d66b" stroke="#1b140e" stroke-width="4" opacity="0.92" />
  <circle cx="7698.78" cy="4247.83" r="14" fill="#d7a541" stroke="#1b140e" stroke-width="4" opacity="0.92" />
  <circle cx="4733.90" cy="4388.44" r="14" fill="#55d66b" stroke="#1b140e" stroke-width="4" opacity="0.92" />
  <circle cx="3989.78" cy="4388.76" r="14" fill="#55d66b" stroke="#1b140e" stroke-width="4" opacity="0.92" />
  <circle cx="5217.97" cy="4428.93" r="14" fill="#55d66b" stroke="#1b140e" stroke-width="4" opacity="0.92" />
  <circle cx="7453.65" cy="4484.89" r="14" fill="#d7a541" stroke="#1b140e" stroke-width="4" opacity="0.92" />
  <circle cx="6955.09" cy="4648.56" r="14" fill="#d7a541" stroke="#1b140e" stroke-width="4" opacity="0.92" />
  <circle cx="3301.22" cy="4683.25" r="14" fill="#d7a541" stroke="#1b140e" stroke-width="4" opacity="0.92" />
  <circle cx="1970.94" cy="4863.72" r="14" fill="#55d66b" stroke="#1b140e" stroke-width="4" opacity="0.92" />
  <circle cx="3979.78" cy="4911.63" r="14" fill="#d7a541" stroke="#1b140e" stroke-width="4" opacity="0.92" />
  <circle cx="2896.70" cy="4928.57" r="14" fill="#d7a541" stroke="#1b140e" stroke-width="4" opacity="0.92" />
  <circle cx="3832.07" cy="4969.01" r="14" fill="#d7a541" stroke="#1b140e" stroke-width="4" opacity="0.92" />
  <circle cx="3524.09" cy="4985.41" r="14" fill="#d7a541" stroke="#1b140e" stroke-width="4" opacity="0.92" />
  <circle cx="2725.08" cy="5014.44" r="14" fill="#d7a541" stroke="#1b140e" stroke-width="4" opacity="0.92" />
  <circle cx="2984.62" cy="5038.81" r="14" fill="#d7a541" stroke="#1b140e" stroke-width="4" opacity="0.92" />
  <circle cx="2549.39" cy="5169.76" r="14" fill="#55d66b" stroke="#1b140e" stroke-width="4" opacity="0.92" />
  <circle cx="1860.76" cy="5288.60" r="14" fill="#55d66b" stroke="#1b140e" stroke-width="4" opacity="0.92" />
  <circle cx="2357.36" cy="5312.84" r="14" fill="#55d66b" stroke="#1b140e" stroke-width="4" opacity="0.92" />
  <circle cx="3176.83" cy="5316.48" r="14" fill="#d7a541" stroke="#1b140e" stroke-width="4" opacity="0.92" />
  <circle cx="3383.28" cy="5455.25" r="14" fill="#d7a541" stroke="#1b140e" stroke-width="4" opacity="0.92" />
  <circle cx="2933.71" cy="5475.92" r="14" fill="#55d66b" stroke="#1b140e" stroke-width="4" opacity="0.92" />
  <circle cx="3074.78" cy="5635.15" r="14" fill="#d7a541" stroke="#1b140e" stroke-width="4" opacity="0.92" />
  <circle cx="1638.18" cy="5672.71" r="14" fill="#55d66b" stroke="#1b140e" stroke-width="4" opacity="0.92" />
  <circle cx="681.81" cy="5722.25" r="14" fill="#d7a541" stroke="#1b140e" stroke-width="4" opacity="0.92" />
  <circle cx="2586.45" cy="5831.50" r="14" fill="#55d66b" stroke="#1b140e" stroke-width="4" opacity="0.92" />
  <circle cx="959.78" cy="5840.56" r="14" fill="#55d66b" stroke="#1b140e" stroke-width="4" opacity="0.92" />
  <circle cx="2126.67" cy="5872.60" r="14" fill="#55d66b" stroke="#1b140e" stroke-width="4" opacity="0.92" />
  <circle cx="1491.17" cy="6003.66" r="14" fill="#d7a541" stroke="#1b140e" stroke-width="4" opacity="0.92" />
  <circle cx="8164.42" cy="1047.72" r="14" fill="#d94f3d" stroke="#1b140e" stroke-width="4" opacity="0.92" />
  <circle cx="7956.16" cy="1248.09" r="14" fill="#d94f3d" stroke="#1b140e" stroke-width="4" opacity="0.92" />
  <circle cx="7784.75" cy="1575.23" r="14" fill="#d94f3d" stroke="#1b140e" stroke-width="4" opacity="0.92" />
  <circle cx="7658.23" cy="1816.50" r="14" fill="#d94f3d" stroke="#1b140e" stroke-width="4" opacity="0.92" />
  <circle cx="8069.05" cy="2053.74" r="14" fill="#d94f3d" stroke="#1b140e" stroke-width="4" opacity="0.92" />
  <circle cx="3956.37" cy="2212.77" r="14" fill="#d94f3d" stroke="#1b140e" stroke-width="4" opacity="0.92" />
  <circle cx="8138.66" cy="2290.94" r="14" fill="#d94f3d" stroke="#1b140e" stroke-width="4" opacity="0.92" />
  <circle cx="7687.20" cy="2389.04" r="14" fill="#d94f3d" stroke="#1b140e" stroke-width="4" opacity="0.92" />
  <circle cx="4050.52" cy="2466.33" r="14" fill="#d94f3d" stroke="#1b140e" stroke-width="4" opacity="0.92" />
  <circle cx="3764.54" cy="2556.27" r="14" fill="#d94f3d" stroke="#1b140e" stroke-width="4" opacity="0.92" />
  <circle cx="4765.70" cy="2617.73" r="14" fill="#d94f3d" stroke="#1b140e" stroke-width="4" opacity="0.92" />
  <circle cx="4543.01" cy="2629.97" r="14" fill="#d94f3d" stroke="#1b140e" stroke-width="4" opacity="0.92" />
  <circle cx="5292.85" cy="2646.41" r="14" fill="#d7a541" stroke="#1b140e" stroke-width="4" opacity="0.92" />
  <circle cx="5542.14" cy="2699.60" r="14" fill="#d7a541" stroke="#1b140e" stroke-width="4" opacity="0.92" />
  <circle cx="7773.26" cy="2769.38" r="14" fill="#d7a541" stroke="#1b140e" stroke-width="4" opacity="0.92" />
  <circle cx="5460.49" cy="2822.28" r="14" fill="#d7a541" stroke="#1b140e" stroke-width="4" opacity="0.92" />
  <circle cx="3954.78" cy="2912.08" r="14" fill="#d7a541" stroke="#1b140e" stroke-width="4" opacity="0.92" />
  <circle cx="5368.63" cy="2936.78" r="14" fill="#55d66b" stroke="#1b140e" stroke-width="4" opacity="0.92" />
  <circle cx="5139.84" cy="2998.10" r="14" fill="#d7a541" stroke="#1b140e" stroke-width="4" opacity="0.92" />
  <circle cx="5358.52" cy="3100.36" r="14" fill="#55d66b" stroke="#1b140e" stroke-width="4" opacity="0.92" />
  <circle cx="7456.80" cy="3125.13" r="14" fill="#d7a541" stroke="#1b140e" stroke-width="4" opacity="0.92" />
  <circle cx="7554.88" cy="3137.41" r="14" fill="#d7a541" stroke="#1b140e" stroke-width="4" opacity="0.92" />
  <circle cx="3901.81" cy="3145.18" r="14" fill="#d7a541" stroke="#1b140e" stroke-width="4" opacity="0.92" />
  <circle cx="4167.45" cy="3198.37" r="14" fill="#55d66b" stroke="#1b140e" stroke-width="4" opacity="0.92" />
  <circle cx="5289.14" cy="3239.40" r="14" fill="#55d66b" stroke="#1b140e" stroke-width="4" opacity="0.92" />
  <circle cx="5587.44" cy="3243.52" r="14" fill="#55d66b" stroke="#1b140e" stroke-width="4" opacity="0.92" />
  <circle cx="7411.95" cy="3272.35" r="14" fill="#55d66b" stroke="#1b140e" stroke-width="4" opacity="0.92" />
  <circle cx="7738.86" cy="3288.74" r="14" fill="#55d66b" stroke="#1b140e" stroke-width="4" opacity="0.92" />
  <circle cx="5174.78" cy="3317.08" r="14" fill="#55d66b" stroke="#1b140e" stroke-width="4" opacity="0.92" />
  <circle cx="4647.67" cy="3341.56" r="14" fill="#55d66b" stroke="#1b140e" stroke-width="4" opacity="0.92" />
  <circle cx="7189.34" cy="3411.37" r="14" fill="#55d66b" stroke="#1b140e" stroke-width="4" opacity="0.92" />
  <circle cx="8045.41" cy="3415.55" r="14" fill="#d7a541" stroke="#1b140e" stroke-width="4" opacity="0.92" />
  <circle cx="5258.63" cy="3456.14" r="14" fill="#55d66b" stroke="#1b140e" stroke-width="4" opacity="0.92" />
  <circle cx="4116.57" cy="3505.08" r="14" fill="#55d66b" stroke="#1b140e" stroke-width="4" opacity="0.92" />
  <circle cx="4872.53" cy="3529.71" r="14" fill="#55d66b" stroke="#1b140e" stroke-width="4" opacity="0.92" />
  <circle cx="4700.94" cy="3570.58" r="14" fill="#55d66b" stroke="#1b140e" stroke-width="4" opacity="0.92" />
  <circle cx="7526.58" cy="3607.70" r="14" fill="#55d66b" stroke="#1b140e" stroke-width="4" opacity="0.92" />
  <circle cx="5007.44" cy="3619.69" r="14" fill="#55d66b" stroke="#1b140e" stroke-width="4" opacity="0.92" />
  <circle cx="6921.83" cy="3619.91" r="14" fill="#d7a541" stroke="#1b140e" stroke-width="4" opacity="0.92" />
  <circle cx="7117.98" cy="3644.46" r="14" fill="#55d66b" stroke="#1b140e" stroke-width="4" opacity="0.92" />
  <circle cx="7669.63" cy="3648.62" r="14" fill="#55d66b" stroke="#1b140e" stroke-width="4" opacity="0.92" />
  <circle cx="4472.18" cy="3680.97" r="14" fill="#55d66b" stroke="#1b140e" stroke-width="4" opacity="0.92" />
  <circle cx="4243.38" cy="3713.67" r="14" fill="#55d66b" stroke="#1b140e" stroke-width="4" opacity="0.92" />
  <circle cx="7289.69" cy="3779.44" r="14" fill="#55d66b" stroke="#1b140e" stroke-width="4" opacity="0.92" />
  <circle cx="4361.96" cy="3848.63" r="14" fill="#55d66b" stroke="#1b140e" stroke-width="4" opacity="0.92" />
  <circle cx="7191.70" cy="3893.94" r="14" fill="#55d66b" stroke="#1b140e" stroke-width="4" opacity="0.92" />
  <circle cx="7579.98" cy="4041.20" r="14" fill="#55d66b" stroke="#1b140e" stroke-width="4" opacity="0.92" />
  <circle cx="3702.18" cy="4061.22" r="14" fill="#55d66b" stroke="#1b140e" stroke-width="4" opacity="0.92" />
  <circle cx="7445.19" cy="4118.89" r="14" fill="#55d66b" stroke="#1b140e" stroke-width="4" opacity="0.92" />
  <circle cx="3920.92" cy="4265.72" r="14" fill="#55d66b" stroke="#1b140e" stroke-width="4" opacity="0.92" />
  <circle cx="7371.74" cy="4286.55" r="14" fill="#d7a541" stroke="#1b140e" stroke-width="4" opacity="0.92" />
  <circle cx="4936.40" cy="4343.53" r="14" fill="#55d66b" stroke="#1b140e" stroke-width="4" opacity="0.92" />
  <circle cx="7191.97" cy="4319.25" r="14" fill="#d7a541" stroke="#1b140e" stroke-width="4" opacity="0.92" />
  <circle cx="7516.88" cy="4396.99" r="14" fill="#d7a541" stroke="#1b140e" stroke-width="4" opacity="0.92" />
  <circle cx="4160.05" cy="4404.79" r="14" fill="#55d66b" stroke="#1b140e" stroke-width="4" opacity="0.92" />
  <circle cx="2924.06" cy="4539.60" r="14" fill="#d94f3d" stroke="#1b140e" stroke-width="4" opacity="0.92" />
  <circle cx="1972.07" cy="4690.81" r="14" fill="#d7a541" stroke="#1b140e" stroke-width="4" opacity="0.92" />
  <circle cx="3001.80" cy="4699.11" r="14" fill="#d94f3d" stroke="#1b140e" stroke-width="4" opacity="0.92" />
  <circle cx="1622.80" cy="4846.17" r="14" fill="#d7a541" stroke="#1b140e" stroke-width="4" opacity="0.92" />
  <circle cx="4211.45" cy="4895.54" r="14" fill="#d7a541" stroke="#1b140e" stroke-width="4" opacity="0.92" />
  <circle cx="3465.72" cy="4899.55" r="14" fill="#d7a541" stroke="#1b140e" stroke-width="4" opacity="0.92" />
  <circle cx="3649.63" cy="4956.82" r="14" fill="#d7a541" stroke="#1b140e" stroke-width="4" opacity="0.92" />
  <circle cx="3165.46" cy="5022.20" r="14" fill="#d7a541" stroke="#1b140e" stroke-width="4" opacity="0.92" />
  <circle cx="4403.58" cy="5022.34" r="14" fill="#d7a541" stroke="#1b140e" stroke-width="4" opacity="0.92" />
  <circle cx="3371.82" cy="5030.40" r="14" fill="#d7a541" stroke="#1b140e" stroke-width="4" opacity="0.92" />
  <circle cx="1453.35" cy="5050.63" r="14" fill="#55d66b" stroke="#1b140e" stroke-width="4" opacity="0.92" />
  <circle cx="3500.63" cy="5185.82" r="14" fill="#d7a541" stroke="#1b140e" stroke-width="4" opacity="0.92" />
  <circle cx="1245.05" cy="5201.92" r="14" fill="#55d66b" stroke="#1b140e" stroke-width="4" opacity="0.92" />
  <circle cx="4176.93" cy="5222.70" r="14" fill="#d7a541" stroke="#1b140e" stroke-width="4" opacity="0.92" />
  <circle cx="3854.13" cy="5243.11" r="14" fill="#d7a541" stroke="#1b140e" stroke-width="4" opacity="0.92" />
  <circle cx="3423.12" cy="5373.93" r="14" fill="#d7a541" stroke="#1b140e" stroke-width="4" opacity="0.92" />
  <circle cx="1960.33" cy="5492.36" r="14" fill="#55d66b" stroke="#1b140e" stroke-width="4" opacity="0.92" />
  <circle cx="1167.66" cy="5574.06" r="14" fill="#55d66b" stroke="#1b140e" stroke-width="4" opacity="0.92" />
  <circle cx="2561.09" cy="5627.38" r="14" fill="#55d66b" stroke="#1b140e" stroke-width="4" opacity="0.92" />
  <circle cx="2841.08" cy="5762.37" r="14" fill="#55d66b" stroke="#1b140e" stroke-width="4" opacity="0.92" />
  <circle cx="1641.82" cy="5819.49" r="14" fill="#55d66b" stroke="#1b140e" stroke-width="4" opacity="0.92" />
  <circle cx="1267.99" cy="5909.42" r="14" fill="#55d66b" stroke="#1b140e" stroke-width="4" opacity="0.92" />
  <circle cx="8013.74" cy="1225.51" r="55" fill="none" stroke="#ff3333" stroke-width="12" />
  <text x="8075.74" y="1245.51" fill="#1b140e" stroke="#f2e2bd" stroke-width="7" paint-order="stroke" font-family="Arial" font-size="76">#1</text>
  <circle cx="7752.47" cy="1623.71" r="55" fill="none" stroke="#ff3333" stroke-width="12" />
  <text x="7814.47" y="1643.71" fill="#1b140e" stroke="#f2e2bd" stroke-width="7" paint-order="stroke" font-family="Arial" font-size="76">#2</text>
  <circle cx="7875.74" cy="2154.91" r="55" fill="none" stroke="#ff3333" stroke-width="12" />
  <text x="7937.74" y="2174.91" fill="#1b140e" stroke="#f2e2bd" stroke-width="7" paint-order="stroke" font-family="Arial" font-size="76">#3</text>
  <circle cx="7528.86" cy="2348.40" r="55" fill="none" stroke="#ff3333" stroke-width="12" />
  <text x="7590.86" y="2368.40" fill="#1b140e" stroke="#f2e2bd" stroke-width="7" paint-order="stroke" font-family="Arial" font-size="76">#4</text>
  <circle cx="3855.53" cy="2371.10" r="55" fill="none" stroke="#ff3333" stroke-width="12" />
  <text x="3917.53" y="2391.10" fill="#1b140e" stroke="#f2e2bd" stroke-width="7" paint-order="stroke" font-family="Arial" font-size="76">#5</text>
  <circle cx="4520.55" cy="2579.25" r="55" fill="none" stroke="#ff3333" stroke-width="12" />
  <text x="4582.55" y="2599.25" fill="#1b140e" stroke="#f2e2bd" stroke-width="7" paint-order="stroke" font-family="Arial" font-size="76">#6</text>
  <circle cx="3558.99" cy="5136.60" r="55" fill="none" stroke="#ff3333" stroke-width="12" />
  <text x="3620.99" y="5156.60" fill="#1b140e" stroke="#f2e2bd" stroke-width="7" paint-order="stroke" font-family="Arial" font-size="76">#7</text>
  <circle cx="2960.91" cy="4728.52" r="55" fill="none" stroke="#ff3333" stroke-width="12" />
  <text x="3022.91" y="4748.52" fill="#1b140e" stroke="#f2e2bd" stroke-width="7" paint-order="stroke" font-family="Arial" font-size="76">#8</text>
  <circle cx="4223.04" cy="5035.42" r="55" fill="none" stroke="#ff3333" stroke-width="12" />
  <text x="4285.04" y="5055.42" fill="#1b140e" stroke="#f2e2bd" stroke-width="7" paint-order="stroke" font-family="Arial" font-size="76">#9</text>
  <circle cx="7826.55" cy="2696.81" r="55" fill="none" stroke="#ff3333" stroke-width="12" />
  <text x="7888.55" y="2716.81" fill="#1b140e" stroke="#f2e2bd" stroke-width="7" paint-order="stroke" font-family="Arial" font-size="76">#10</text>
  <circle cx="2898.72" cy="5034.56" r="55" fill="none" stroke="#ff3333" stroke-width="12" />
  <text x="2960.72" y="5054.56" fill="#1b140e" stroke="#f2e2bd" stroke-width="7" paint-order="stroke" font-family="Arial" font-size="76">#11</text>
  <circle cx="7569.70" cy="3194.22" r="55" fill="none" stroke="#ff3333" stroke-width="12" />
  <text x="7631.70" y="3214.22" fill="#1b140e" stroke="#f2e2bd" stroke-width="7" paint-order="stroke" font-family="Arial" font-size="76">#12</text>
  <circle cx="7455.70" cy="4345.64" r="55" fill="none" stroke="#ff3333" stroke-width="12" />
  <text x="7517.70" y="4365.64" fill="#1b140e" stroke="#f2e2bd" stroke-width="7" paint-order="stroke" font-family="Arial" font-size="76">#13</text>
  <circle cx="1866.40" cy="4905.91" r="55" fill="none" stroke="#ff3333" stroke-width="12" />
  <text x="1928.40" y="4925.91" fill="#1b140e" stroke="#f2e2bd" stroke-width="7" paint-order="stroke" font-family="Arial" font-size="76">#14</text>
  <circle cx="6787.16" cy="3455.33" r="55" fill="none" stroke="#ff3333" stroke-width="12" />
  <text x="6849.16" y="3475.33" fill="#1b140e" stroke="#f2e2bd" stroke-width="7" paint-order="stroke" font-family="Arial" font-size="76">#15</text>
  <circle cx="7895.43" cy="3435.02" r="55" fill="none" stroke="#ff3333" stroke-width="12" />
  <text x="7957.43" y="3455.02" fill="#1b140e" stroke="#f2e2bd" stroke-width="7" paint-order="stroke" font-family="Arial" font-size="76">#16</text>
  <circle cx="2949.86" cy="5624.48" r="55" fill="none" stroke="#ff3333" stroke-width="12" />
  <text x="3011.86" y="5644.48" fill="#1b140e" stroke="#f2e2bd" stroke-width="7" paint-order="stroke" font-family="Arial" font-size="76">#17</text>
  <circle cx="6813.41" cy="4461.72" r="55" fill="none" stroke="#ff3333" stroke-width="12" />
  <text x="6875.41" y="4481.72" fill="#1b140e" stroke="#f2e2bd" stroke-width="7" paint-order="stroke" font-family="Arial" font-size="76">#18</text>
  <circle cx="7517.04" cy="3797.41" r="55" fill="none" stroke="#ff3333" stroke-width="12" />
  <text x="7579.04" y="3817.41" fill="#1b140e" stroke="#f2e2bd" stroke-width="7" paint-order="stroke" font-family="Arial" font-size="76">#19</text>
  <circle cx="1787.02" cy="5830.39" r="55" fill="none" stroke="#ff3333" stroke-width="12" />
  <text x="1849.02" y="5850.39" fill="#1b140e" stroke="#f2e2bd" stroke-width="7" paint-order="stroke" font-family="Arial" font-size="76">#20</text>
  <circle cx="4915.86" cy="3052.18" r="55" fill="none" stroke="#ff3333" stroke-width="12" />
  <text x="4977.86" y="3072.18" fill="#1b140e" stroke="#f2e2bd" stroke-width="7" paint-order="stroke" font-family="Arial" font-size="76">#21</text>
  <circle cx="5389.46" cy="2846.41" r="55" fill="none" stroke="#ff3333" stroke-width="12" />
  <text x="5451.46" y="2866.41" fill="#1b140e" stroke="#f2e2bd" stroke-width="7" paint-order="stroke" font-family="Arial" font-size="76">#22</text>
  <circle cx="4026.10" cy="3141.56" r="55" fill="none" stroke="#ff3333" stroke-width="12" />
  <text x="4088.10" y="3161.56" fill="#1b140e" stroke="#f2e2bd" stroke-width="7" paint-order="stroke" font-family="Arial" font-size="76">#23</text>
  <circle cx="6426.86" cy="3850.76" r="55" fill="none" stroke="#ff3333" stroke-width="12" />
  <text x="6488.86" y="3870.76" fill="#1b140e" stroke="#f2e2bd" stroke-width="7" paint-order="stroke" font-family="Arial" font-size="76">#24</text>
  <circle cx="898.03" cy="5769.63" r="55" fill="none" stroke="#ff3333" stroke-width="12" />
  <text x="960.03" y="5789.63" fill="#1b140e" stroke="#f2e2bd" stroke-width="7" paint-order="stroke" font-family="Arial" font-size="76">#25</text>
  <circle cx="5257.95" cy="3390.56" r="55" fill="none" stroke="#ff3333" stroke-width="12" />
  <text x="5319.95" y="3410.56" fill="#1b140e" stroke="#f2e2bd" stroke-width="7" paint-order="stroke" font-family="Arial" font-size="76">#26</text>
  <circle cx="3802.89" cy="4163.84" r="55" fill="none" stroke="#ff3333" stroke-width="12" />
  <text x="3864.89" y="4183.84" fill="#1b140e" stroke="#f2e2bd" stroke-width="7" paint-order="stroke" font-family="Arial" font-size="76">#27</text>
  <circle cx="2480.53" cy="5381.89" r="55" fill="none" stroke="#ff3333" stroke-width="12" />
  <text x="2542.53" y="5401.89" fill="#1b140e" stroke="#f2e2bd" stroke-width="7" paint-order="stroke" font-family="Arial" font-size="76">#28</text>
  <circle cx="1477.58" cy="5246.11" r="55" fill="none" stroke="#ff3333" stroke-width="12" />
  <text x="1539.58" y="5266.11" fill="#1b140e" stroke="#f2e2bd" stroke-width="7" paint-order="stroke" font-family="Arial" font-size="76">#29</text>
  <circle cx="4201.76" cy="3636.72" r="55" fill="none" stroke="#ff3333" stroke-width="12" />
  <text x="4263.76" y="3656.72" fill="#1b140e" stroke="#f2e2bd" stroke-width="7" paint-order="stroke" font-family="Arial" font-size="76">#30</text>
  <rect x="6155.93" y="3376.93" width="36" height="36" fill="#1b140e" stroke="#ffd36a" stroke-width="7" />
  <rect x="5199.97" y="4410.93" width="36" height="36" fill="#1b140e" stroke="#ffd36a" stroke-width="7" />
  <rect x="5042.55" y="4410.55" width="36" height="36" fill="#1b140e" stroke="#ffd36a" stroke-width="7" />
  <rect x="5220.31" y="4120.74" width="36" height="36" fill="#1b140e" stroke="#ffd36a" stroke-width="7" />
  <rect x="5267.30" y="4051.16" width="36" height="36" fill="#1b140e" stroke="#ffd36a" stroke-width="7" />
  <rect x="4918.40" y="4325.53" width="36" height="36" fill="#1b140e" stroke="#ffd36a" stroke-width="7" />
  <rect x="3971.78" y="4370.76" width="36" height="36" fill="#1b140e" stroke="#ffd36a" stroke-width="7" />
  <rect x="2543.09" y="5609.38" width="36" height="36" fill="#1b140e" stroke="#ffd36a" stroke-width="7" />
  <rect x="1927.56" y="5261.62" width="36" height="36" fill="#1b140e" stroke="#ffd36a" stroke-width="7" />
  <rect x="1333.16" y="5425.29" width="36" height="36" fill="#1b140e" stroke="#ffd36a" stroke-width="7" />
  <rect x="1149.66" y="5556.06" width="36" height="36" fill="#1b140e" stroke="#ffd36a" stroke-width="7" />
  <rect x="4225.38" y="3695.67" width="36" height="36" fill="#1b140e" stroke="#ffd36a" stroke-width="7" />
  <rect x="4184.00" y="3623.11" width="36" height="36" fill="#1b140e" stroke="#ffd36a" stroke-width="7" />
  <rect x="4348.23" y="3753.73" width="36" height="36" fill="#1b140e" stroke="#ffd36a" stroke-width="7" />
  <rect x="4343.96" y="3830.63" width="36" height="36" fill="#1b140e" stroke="#ffd36a" stroke-width="7" />
  <rect x="4454.18" y="3662.97" width="36" height="36" fill="#1b140e" stroke="#ffd36a" stroke-width="7" />
  <rect x="4989.44" y="3601.69" width="36" height="36" fill="#1b140e" stroke="#ffd36a" stroke-width="7" />
  <rect x="5587.79" y="3287.38" width="36" height="36" fill="#1b140e" stroke="#ffd36a" stroke-width="7" />
  <rect x="5751.26" y="3262.78" width="36" height="36" fill="#1b140e" stroke="#ffd36a" stroke-width="7" />
  <rect x="6421.32" y="4009.61" width="36" height="36" fill="#1b140e" stroke="#ffd36a" stroke-width="7" />
  <rect x="7423.05" y="3641.75" width="36" height="36" fill="#1b140e" stroke="#ffd36a" stroke-width="7" />
</svg>
